# xmcd
#
# Track frame offsets: 
#        150
#        21656
#        43180
#        67831
#        89268
#        123842
#        154187
#        176364
#        198542
#        224750
#        252813
#
# Disc length: 3869 seconds
#
# Revision: 4
# Processed by: cddbd v1.5.2PL0 Copyright (c) Steve Scherf et al.
# Submitted via: ExactAudioCopyFreeDBPlugin 1.0
#
DISCID=9b0f1b0b
DTITLE=Big Allanbik - Batuque y Blues
DYEAR=1998
DGENRE=Blues
TTITLE0=Gully Low Blues
TTITLE1=My Babe
TTITLE2=I Just Wanna Make Love To You
TTITLE3=Let It loose
TTITLE4=Jessica
TTITLE5=Fare
TTITLE6=Let The Good Times Roll
TTITLE7=Blues For Douglaston
TTITLE8=Seventh Son
TTITLE9=Evil
TTITLE10=Stormy Monday
EXTD=
EXTT0=
EXTT1=
EXTT2=
EXTT3=
EXTT4=
EXTT5=
EXTT6=
EXTT7=
EXTT8=
EXTT9=
EXTT10=
PLAYORDER=
